{"title":"The Night Manager S01 Complete BDRip 1080p 6ch x265 [S-Less]","uid":13973971,"size":2290853734,"categoryP":"video","categoryS":"hd___tv_shows","magnet":"?xt=urn:btih:b49dc88acf8db36c408d87c39cf9ae9d20923cf3&amp;dn=The+Night+Manager+S01+Complete+BDRip+1080p+6ch+x265+%5BS-Less%5D&amp;tr=udp%3A%2F%2Ftracker.leechers-paradise.org%3A6969&amp;tr=udp%3A%2F%2Fzer0day.ch%3A1337&amp;tr=udp%3A%2F%2Fopen.demonii.com%3A1337&amp;tr=udp%3A%2F%2Ftracker.coppersurfer.tk%3A6969&amp;tr=udp%3A%2F%2Fexodus.desync.com%3A6969","seeders":18,"leechers":5,"uploader":"soulessness","files":6,"time":1458638094,"description":"The.Night.Manager.S01.BDRip.1080p.6ch.x265.10bit.[S-Less]\r\n\r\nVideo: 1920x1080 BDRip x265 10bit\r\nAudio: 5.1 English\r\nSubtitles: English\r\n\r\nEpisode 1\r\nHotel night manager Jonathan Pine receives a plea for help from a well-connected guest. His actions draw him into the world of Richard Roper, a businessman and arms dealer.\r\n\r\nEpisode 2\r\nOn the Mediterranean island of Mallorca, Roper's life of luxury and calm is shattered. Six months earlier, Burr continues her recruitment of Pine, sending him to Devon to build his cover story.\r\n\r\nEpisode 3\r\nWhile he continues to recuperate in Roper's villa, Pine starts to dig up secrets about the other members of the household. Meanwhile, Burr and Steadman seize on an opportunity to recruit a new asset.\r\n\r\nEpisode 4\r\nRoper welcomes Pine into his inner circle, leaving Corky out in the cold. Meanwhile, Burr has concerns for the safety of her source when she suspects key information has been leaked to the River House.\r\n\r\nEpisode 5\r\nA suspicious Roper gathers his entourage around him in an attempt to root out the traitor, forcing Pine to play a dangerous game. In London, Burr and Steadman face mounting opposition from Whitehall.\r\n\r\nEpisode 6\r\nSeries finale. Roper and his team return to Cairo for the deal, reuniting Pine with an old enemy. Pine risks it all to put his plan in motion. A discredited Burr makes one last stand.\r\n\r\nMediaInfo:\r\n\r\nVideo\r\nID : 1\r\nFormat : HEVC\r\nFormat/Info : High Efficiency Video Coding\r\nFormat profile : Main   @Main\r\nCodec ID : V_MPEGH/ISO/HEVC\r\nDuration : 58mn 7s\r\nBit rate : 759 Kbps\r\nWidth : 1 920 pixels\r\nHeight : 1 080 pixels\r\nDisplay aspect ratio : 16:9\r\nFrame rate mode : Constant\r\nFrame rate : 25.000 fps\r\nColor space : YUV\r\nChroma subsampling : 4:2:0\r\nBit depth : 10 bits\r\nBits/(Pixel*Frame) : 0.015\r\nStream size : 316 MiB (79%)\r\nDefault : Yes\r\nForced : No\r\n\r\nAudio\r\nID : 2\r\nFormat : AAC\r\nFormat/Info : Advanced Audio Codec\r\nFormat profile : HE-AAC / LC\r\nCodec ID : A_AAC\r\nDuration : 58mn 7s\r\nBit rate : 192 Kbps\r\nChannel(s) : 6 channels\r\nChannel positions : Front: L C R, Side: L R, LFE\r\nSampling rate : 48.0 KHz / 24.0 KHz\r\nFrame rate : 23.438 fps (1024 spf)\r\nCompression mode : Lossy\r\nDelay relative to video : 31ms\r\nStream size : 79.7 MiB (20%)\r\nLanguage : English\r\nDefault : Yes\r\nForced : No\r\n\r\nText\r\nID : 3\r\nFormat : VobSub\r\nMuxing mode : zlib\r\nCodec ID : S_VOBSUB\r\nCodec ID/Info : Picture based subtitle format used on DVDs\r\nDuration : 56mn 27s\r\nBit rate : 4 111 bps\r\nCount of elements : 829\r\nStream size : 1.66 MiB (0%)\r\nLanguage : English\r\nDefault : Yes\r\nForced : No","torrent":{"xt":"urn:btih:b49dc88acf8db36c408d87c39cf9ae9d20923cf3","amp;dn":"The+Night+Manager+S01+Complete+BDRip+1080p+6ch+x265+%5BS-Less%5D","amp;tr":["udp%3A%2F%2Ftracker.leechers-paradise.org%3A6969","udp%3A%2F%2Fzer0day.ch%3A1337","udp%3A%2F%2Fopen.demonii.com%3A1337","udp%3A%2F%2Ftracker.coppersurfer.tk%3A6969","udp%3A%2F%2Fexodus.desync.com%3A6969"],"infoHash":"b49dc88acf8db36c408d87c39cf9ae9d20923cf3","infoHashBuffer":{"type":"Buffer","data":[180,157,200,138,207,141,179,108,64,141,135,195,156,249,174,157,32,146,60,243]},"announce":[],"urlList":[]}}